# xmcd
#
# Track frame offsets: 
#        150
#        14127
#        36020
#        51825
#        84122
#        108920
#        129177
#        149109
#        164282
#        188040
#        203020
#        230077
#        246525
#        286580
#        305365
#        322061
#        340016
#
# Disc length: 4782 seconds
#
# Revision: 2
# Processed by: cddbd v1.5.2PL0 Copyright (c) Steve Scherf et al.
# Submitted via: ExactAudioCopy v1.3
#
DISCID=ef12ac11
DTITLE=Various Artist - Akella Presents - vol.33 - Chicago Blues  CD2
DYEAR=2013
DGENRE=Blues
TTITLE0=Booba Barnes - Heartbroken Man
TTITLE1=Lurrie Bell - What Can A Poor Man Do
TTITLE2=Eddie Vaan Shaw - Torn Down
TTITLE3=Nate Turner - Too Late To Cry
TTITLE4=Carey Bell - My Eyes Keep Me In Trouble
TTITLE5=Junior Wells - Broke And Hungry
TTITLE6=Larry Taylor - Yes, I Love You
TTITLE7=Elmore James Jr - The Sky Is Crying
TTITLE8=Tre and the Blueknights - Love Don't Have No Love for You
TTITLE9=George Baze - Park My Car
TTITLE10=Magic Slim and The Teardrops - Driftin' Blues
TTITLE11=Eddie Jr. Taylor - I Feel So Bad
TTITLE12=James Cotton - Black Night
TTITLE13=Michael Coleman - Call My Job
TTITLE14=Hip Link Chain - Saddle My Pony
TTITLE15=L.V. Banks - Down In Mississippi
TTITLE16=Carlos Johnson and Lefty Dizz - Woke up this morning (dreamin' 
TTITLE16=blues)
EXTD=
EXTT0=
EXTT1=
EXTT2=
EXTT3=
EXTT4=
EXTT5=
EXTT6=
EXTT7=
EXTT8=
EXTT9=
EXTT10=
EXTT11=
EXTT12=
EXTT13=
EXTT14=
EXTT15=
EXTT16=
PLAYORDER=
